<?xml version="1.0" encoding="UTF-8"?>
<svg xmlns:xlink="http://www.w3.org/1999/xlink" width="38px" height="31px" viewBox="0 0 38 31" version="1.1"
     xmlns="http://www.w3.org/2000/svg">
    <title>9</title>
    <g id="卡片" stroke="none" stroke-width="1" fill="none" fill-rule="evenodd">
        <g id="Apple-TV" transform="translate(-1078.000000, -315.000000)">
            <g id="9" transform="translate(1079.000000, 315.183013)">
                <path d="M12.0973861,2.1357996 L12.5702912,2.62020404 L13.7944582,3.92571444 C13.8627984,3.99722799 13.9245499,4.06094448 13.9835073,4.12077317 L14.1717712,4.3071205 C14.2287119,4.3617559 14.2799037,4.40896246 14.3255411,4.4488948 L14.3898559,4.50335698 C14.4220338,4.5295734 14.4440492,4.54370898 14.4017158,4.54831455 L14.567666,4.53103221 C14.7695835,4.50390785 15.1205984,4.44424406 15.7771839,4.33038055 C16.3324782,4.23920295 16.7969784,4.17629396 17.2474843,4.1374344 C17.550817,4.11126965 17.8359861,4.09752568 18.1045801,4.09752568 C18.3764522,4.09752568 18.6650118,4.11160403 18.9723939,4.13840668 C19.3290092,4.1695023 19.693139,4.21540752 20.1100975,4.27912539 L20.4334298,4.33030059 C20.6016674,4.35775367 21.2259201,4.46402813 21.3606704,4.4856132 L21.6972928,4.53426865 L21.8958408,4.55002171 C21.8147861,4.55002171 21.8087549,4.54377889 21.828616,4.52394197 L21.8475989,4.50640053 C21.9246622,4.4361867 22.0216196,4.33413547 22.1385117,4.20030366 L22.2299191,4.09397182 C22.3144672,3.99419093 22.4061047,3.88256147 22.5115047,3.75116319 L23.5420647,2.43838964 L23.8703715,2.02991923 C24.7536052,0.948018327 25.2535502,0.5 25.7768718,0.5 C27.0535368,0.5 28.6460022,5.41875048 28.6460022,8.19505136 C28.6460022,8.47119373 28.4221445,8.69505136 28.1460022,8.69505136 C27.8698598,8.69505136 27.6460022,8.47119373 27.6460022,8.19505136 C27.6460022,5.97733643 26.1964464,1.5 25.7768718,1.5 C25.6848495,1.5 25.1691402,2.01392092 24.4604447,2.89130799 L23.2893391,4.37964801 C23.1795432,4.51649234 23.0831458,4.63388772 22.9928603,4.74043981 C22.5019525,5.31979369 22.2492652,5.55002171 21.8958408,5.55002171 L21.7172441,5.5416696 C21.5842882,5.53046578 21.4199354,5.50785506 21.2025012,5.47302521 L20.2723796,5.3172468 L19.6730004,5.22569781 C19.3921412,5.18636903 19.1355766,5.15643007 18.885527,5.13462661 C18.6055237,5.11021129 18.3455106,5.09752568 18.1045801,5.09752568 C17.8665684,5.09752568 17.6096517,5.109908 17.3334228,5.13373485 C16.9125033,5.17004236 16.4714163,5.2297804 15.9392112,5.31716684 L14.9877928,5.47958801 C14.6751032,5.52903294 14.4902515,5.55002171 14.3570536,5.55002171 C14.0617837,5.55002171 13.8370381,5.38696098 13.3968428,4.94901388 L12.9619615,4.50131999 L11.9541004,3.4233496 L11.7449522,3.2043831 C10.9131336,2.34144528 10.3044612,1.84891491 10.1324785,1.84891491 C9.90168509,1.84891491 9.20284755,4.07330159 8.55657448,8.01639411 C8.51191066,8.28890054 8.25479337,8.47360347 7.98228694,8.42893965 C7.70978051,8.38427583 7.52507758,8.12715855 7.5697414,7.85465212 L7.68793151,7.14877389 C8.43195367,2.80434854 9.09801707,0.848914914 10.1324785,0.848914914 C10.650332,0.848914914 11.220851,1.26127308 12.0973861,2.1357996 Z"
                      id="路径-17" fill="#333333" fill-rule="nonzero"></path>
                <path d="M6.32810085,8.66455601 C6.51447982,8.4607976 6.83074866,8.44670879 7.03450707,8.63308776 C7.23826548,8.81946674 7.25235429,9.13573558 7.06597531,9.33949398 C3.45490726,13.2872862 1.99431677,17.4612752 2.65435071,21.8946431 C3.2959909,26.2044625 6.86578115,28.4495962 13.5508705,28.6243625 C13.8269186,28.6315791 14.0448495,28.8612105 14.0376329,29.1372586 C14.0304162,29.4133066 13.8007848,29.6312376 13.5247368,29.6241951 C6.40591584,29.4379157 2.39037131,26.9124356 1.66525225,22.0418988 C0.958526945,17.2949106 2.52276086,12.8247356 6.32810085,8.66455601 Z"
                      id="路径-18" fill="#333333" fill-rule="nonzero"></path>
                <path d="M16.3675842,14.5848121 L17.7705003,13.8169873 L19.5764886,14.6988948 L20.7659995,22.3181315 C20.8511809,22.8638031 20.4778877,23.3752161 19.9322174,23.4604059 C19.813274,23.4789752 19.6919549,23.4759149 19.574099,23.4513721 C18.8934693,23.309635 18.2922697,23.2387665 17.7705003,23.2387665 C17.3241803,23.2387665 16.8609041,23.2803904 16.3806715,23.3636381 C15.8364958,23.4579881 15.31888,23.0933158 15.2245473,22.5491371 C15.2062594,22.4436396 15.2050328,22.3358897 15.2209143,22.2300033 L16.3675842,14.5848121 L16.3675842,14.5848121 Z"
                      id="矩形备份-12" fill="#F6B2B1"></path>
                <path d="M27.3278117,8.66455601 C27.5141906,8.4607976 27.8304595,8.44670879 28.0342179,8.63308776 C28.2379763,8.81946674 28.2520651,9.13573558 28.0656861,9.33949398 C24.4546181,13.2872862 22.9940276,17.4612752 23.6540615,21.8946431 C24.2957017,26.2044625 27.865492,28.4495962 34.5505813,28.6243625 C34.8266294,28.6315791 35.0445603,28.8612105 35.0373437,29.1372586 C35.030127,29.4133066 34.8004956,29.6312376 34.5244476,29.6241951 C27.4056266,29.4379157 23.3900821,26.9124356 22.6649631,22.0418988 C21.9582378,17.2949106 23.5224717,12.8247356 27.3278117,8.66455601 Z"
                      id="路径-18备份" fill="#333333" fill-rule="nonzero"
                      transform="translate(28.768709, 19.063108) scale(-1, 1) translate(-28.768709, -19.063108) "></path>
                <g id="编组-26" transform="translate(0.000000, 10.849168)" fill="#333333" fill-rule="nonzero">
                    <path d="M0.532121855,0.000945854524 L0.621267813,0.0149287499 L4.62126781,1.01492875 C4.88916527,1.08190311 5.05204561,1.35337036 4.98507125,1.62126781 C4.92553848,1.85939888 4.70443109,2.01455347 4.46787814,1.99905415 L4.37873219,1.98507125 L0.378732187,0.98507125 C0.110834733,0.918096887 -0.0520456136,0.646629641 0.0149287499,0.378732187 C0.0744615175,0.140601117 0.295568908,-0.0145534734 0.532121855,0.000945854524 Z"
                          id="直线-2"></path>
                    <path d="M4.43798263,2.50386106 C4.7119926,2.46960982 4.96188769,2.66397266 4.99613894,2.93798263 C5.02658449,3.18154705 4.87639668,3.40605774 4.65019979,3.47699778 L4.56201737,3.49613894 L0.562017367,3.99613894 C0.288007398,4.03039018 0.0381123078,3.83602734 0.00386106164,3.56201737 C-0.0265844905,3.31845295 0.123603316,3.09394226 0.349800214,3.02300222 L0.437982633,3.00386106 L4.43798263,2.50386106 Z"
                          id="直线-2备份"></path>
                </g>
                <g id="编组-22"
                   transform="translate(33.500000, 13.349168) scale(-1, 1) translate(-33.500000, -13.349168) translate(31.000000, 10.849168)"
                   fill="#333333" fill-rule="nonzero">
                    <path d="M0.532121855,0.000945854524 L0.621267813,0.0149287499 L4.62126781,1.01492875 C4.88916527,1.08190311 5.05204561,1.35337036 4.98507125,1.62126781 C4.92553848,1.85939888 4.70443109,2.01455347 4.46787814,1.99905415 L4.37873219,1.98507125 L0.378732187,0.98507125 C0.110834733,0.918096887 -0.0520456136,0.646629641 0.0149287499,0.378732187 C0.0744615175,0.140601117 0.295568908,-0.0145534734 0.532121855,0.000945854524 Z"
                          id="直线-2备份-2"></path>
                    <path d="M4.43798263,2.50386106 C4.7119926,2.46960982 4.96188769,2.66397266 4.99613894,2.93798263 C5.02658449,3.18154705 4.87639668,3.40605774 4.65019979,3.47699778 L4.56201737,3.49613894 L0.562017367,3.99613894 C0.288007398,4.03039018 0.0381123078,3.83602734 0.00386106164,3.56201737 C-0.0265844905,3.31845295 0.123603316,3.09394226 0.349800214,3.02300222 L0.437982633,3.00386106 L4.43798263,2.50386106 Z"
                          id="直线-2备份-3"></path>
                </g>
                <path d="M8,16.3491679 C9.1045695,16.3491679 10,15.4537374 10,14.3491679 C10,13.2445984 9.1045695,12.3491679 8,12.3491679 C6.8954305,12.3491679 6,13.2445984 6,14.3491679 C6,15.4537374 6.8954305,16.3491679 8,16.3491679 Z"
                      id="椭圆形备份-6" fill="#F6B2B1"></path>
                <path d="M28,16.3491679 C29.1045695,16.3491679 30,15.4537374 30,14.3491679 C30,13.2445984 29.1045695,12.3491679 28,12.3491679 C26.8954305,12.3491679 26,13.2445984 26,14.3491679 C26,15.4537374 26.8954305,16.3491679 28,16.3491679 Z"
                      id="椭圆形备份-7" fill="#F6B2B1"></path>
                <path d="M8.75807883,12 C4.79108451,12.070596 2.4014745,12.5994971 1.58924882,13.5867034 C0.370910303,15.0675129 1.15709681,16.5950788 1.58924882,16.5950788 C2.02140083,16.5950788 3.97949752,15.7962167 4.28017628,15.5266375 C4.58085503,15.2570584 1.21841169,18.339163 0.451828262,20.3168628 C-0.314755169,22.2945625 -0.0790760866,23.7522649 0.955612566,23.7522649 C1.99030122,23.7522649 3.41233485,21.0429135 3.70417011,20.6798881 C3.99600538,20.3168628 2.42629942,22.6958108 3.50003282,23.4916767 C4.21585509,24.0222539 4.60525392,23.7997395 4.66822932,22.8241337 C4.47532583,22.076437 4.51247814,22.2050138 4.77968623,23.209864 C5.18049836,24.7171393 5.65421045,25.1113624 6.08970229,25.1113624 C6.79244128,25.1113624 7.71410451,23.9783635 7.71410451,23.209864 C7.71410451,22.4413645 6.2568443,20.6717816 6.60174052,20.0882585 C6.94663673,19.5047353 7.45675887,21.8587257 8.31457767,21.8587257 C9.17239647,21.8587257 9.20158,19.3238242 8.75807883,18.567589 C8.31457767,17.8113539 8.05059941,15.4069556 10,13.2217285"
                      id="路径-21" fill="#7DCEF4"></path>
                <path d="M1.06243098,26.3435353 C1.40530915,26.5435007 1.73310833,27.1946533 1.06243098,27.2747646 C0.615312753,27.3281722 0.413812314,27.1025882 0.457929669,26.5980127 C0.632345104,26.2950508 0.833845543,26.210225 1.06243098,26.3435353 Z"
                      id="路径-20备份-11" fill="#7DCEF4"
                      transform="translate(0.951986, 26.782432) scale(-1, -1) rotate(64.000000) translate(-0.951986, -26.782432) "></path>
                <path d="M5.16104749,26.8413912 C5.50392566,27.2413221 5.83172484,28.5436271 5.16104749,28.7038498 C4.71392926,28.8106649 4.51242882,28.359497 4.55654618,27.3503461 C4.73096161,26.7444222 4.93246205,26.5747706 5.16104749,26.8413912 Z"
                      id="路径-20备份-12" fill="#7DCEF4"
                      transform="translate(5.050603, 27.719186) scale(-1, -1) rotate(12.000000) translate(-5.050603, -27.719186) "></path>
                <path d="M34.7580788,12 C30.7910845,12.070596 28.4014745,12.5994971 27.5892488,13.5867034 C26.3709103,15.0675129 27.1570968,16.5950788 27.5892488,16.5950788 C28.0214008,16.5950788 29.9794975,15.7962167 30.2801763,15.5266375 C30.580855,15.2570584 27.2184117,18.339163 26.4518283,20.3168628 C25.6852448,22.2945625 25.9209239,23.7522649 26.9556126,23.7522649 C27.9903012,23.7522649 29.4123349,21.0429135 29.7041701,20.6798881 C29.9960054,20.3168628 28.4262994,22.6958108 29.5000328,23.4916767 C30.2158551,24.0222539 30.6052539,23.7997395 30.6682293,22.8241337 C30.4753258,22.076437 30.5124781,22.2050138 30.7796862,23.209864 C31.1804984,24.7171393 31.6542104,25.1113624 32.0897023,25.1113624 C32.7924413,25.1113624 33.7141045,23.9783635 33.7141045,23.209864 C33.7141045,22.4413645 32.2568443,20.6717816 32.6017405,20.0882585 C32.9466367,19.5047353 33.4567589,21.8587257 34.3145777,21.8587257 C35.1723965,21.8587257 35.20158,19.3238242 34.7580788,18.567589 C34.3145777,17.8113539 34.0505994,15.4069556 36,13.2217285"
                      id="路径-21" fill="#7DCEF4"
                      transform="translate(31.000000, 18.555681) scale(-1, 1) translate(-31.000000, -18.555681) "></path>
                <path d="M35.158458,26.3435353 C35.5013362,26.5435007 35.8291354,27.1946533 35.158458,27.2747646 C34.7113398,27.3281722 34.5098394,27.1025882 34.5539567,26.5980127 C34.7283722,26.2950508 34.9298726,26.210225 35.158458,26.3435353 Z"
                      id="路径-20备份-11" fill="#7DCEF4"
                      transform="translate(35.048014, 26.782432) scale(1, -1) rotate(64.000000) translate(-35.048014, -26.782432) "></path>
                <path d="M31.0598415,26.8413912 C31.4027197,27.2413221 31.7305189,28.5436271 31.0598415,28.7038498 C30.6127233,28.8106649 30.4112229,28.359497 30.4553402,27.3503461 C30.6297557,26.7444222 30.8312561,26.5747706 31.0598415,26.8413912 Z"
                      id="路径-20备份-12" fill="#7DCEF4"
                      transform="translate(30.949397, 27.719186) scale(1, -1) rotate(12.000000) translate(-30.949397, -27.719186) "></path>
                <g id="编组-27" transform="translate(14.440270, 11.349168)" fill="#333333">
                    <path d="M3.55973011,1 C4.11201486,1 4.4209444,0.776142375 4.4209444,0.5 C4.4209444,0.223857625 4.11201486,0 3.55973011,0 C3.00744536,0 2.73769821,0.223857625 2.73769821,0.5 C2.73769821,0.776142375 3.00744536,1 3.55973011,1 Z"
                          id="椭圆形备份-8"></path>
                    <path d="M1.62321956,-0.283998418 C2.72778906,-0.283998418 3.62321956,0.611432083 3.62321956,1.71600158 C3.62321956,2.77036338 2.80734177,3.6341667 1.77248191,3.71051585 L1.62321956,3.71600158 L1,3.71600158 C0.723857625,3.71600158 0.5,3.49214396 0.5,3.21600158 C0.5,2.97054169 0.676875161,2.76639321 0.910124368,2.72405725 L1,2.71600158 L1.62321956,2.71600158 C2.17550431,2.71600158 2.62321956,2.26828633 2.62321956,1.71600158 C2.62321956,1.20316574 2.23717937,0.780494422 1.73984069,0.722729314 L1.62321956,0.716001582 L1,0.716001582 C0.723857625,0.716001582 0.5,0.492143957 0.5,0.216001582 C0.5,-0.0294583065 0.676875161,-0.233606788 0.910124368,-0.275942748 L1,-0.283998418 L1.62321956,-0.283998418 Z"
                          id="矩形" fill-rule="nonzero"
                          transform="translate(2.061610, 1.716002) rotate(-270.000000) translate(-2.061610, -1.716002) "></path>
                    <path d="M4.62321956,-0.283998418 C5.72778906,-0.283998418 6.62321956,0.611432083 6.62321956,1.71600158 C6.62321956,2.77036338 5.80734177,3.6341667 4.77248191,3.71051585 L4.62321956,3.71600158 L4,3.71600158 C3.72385763,3.71600158 3.5,3.49214396 3.5,3.21600158 C3.5,2.97054169 3.67687516,2.76639321 3.91012437,2.72405725 L4,2.71600158 L4.62321956,2.71600158 C5.17550431,2.71600158 5.62321956,2.26828633 5.62321956,1.71600158 C5.62321956,1.20316574 5.23717937,0.780494422 4.73984069,0.722729314 L4.62321956,0.716001582 L4,0.716001582 C3.72385763,0.716001582 3.5,0.492143957 3.5,0.216001582 C3.5,-0.0294583065 3.67687516,-0.233606788 3.91012437,-0.275942748 L4,-0.283998418 L4.62321956,-0.283998418 Z"
                          id="矩形备份-11" fill-rule="nonzero"
                          transform="translate(5.061610, 1.716002) rotate(-270.000000) translate(-5.061610, -1.716002) "></path>
                    <path d="M3.5,2 L5.55973011,3 L6.94668948,11.8325968 C7.03235034,12.3781912 6.65951191,12.8899329 6.11391945,12.9756058 C5.99113556,12.9948863 5.86583335,12.9911082 5.74443411,12.9644653 C4.89067562,12.7770952 4.14253092,12.6834101 3.5,12.6834101 C2.8855246,12.6834101 2.19840422,12.7690924 1.43863886,12.9404571 C0.899885414,13.0619809 0.364629883,12.7237416 0.243113913,12.1849864 C0.215784067,12.0638164 0.211268078,11.9386151 0.229797093,11.815791 L1.55973011,3 L3.5,2 Z M3.513,3.117 L2.472,3.654 L1.21860863,11.9649611 L1.56939365,11.8905451 C2.26258654,11.7530157 2.90568378,11.6834101 3.5,11.6834101 C4.11791475,11.6834101 4.80729704,11.7586829 5.57083589,11.9072998 L5.95879749,11.9877114 L4.652,3.671 L3.513,3.117 Z"
                          id="矩形备份-12" fill-rule="nonzero"></path>
                </g>
                <path d="M10.3518734,4.12398547 C10.0111864,4.23881047 9.8014764,4.86621545 9.59417046,5.72736861 C9.38686453,6.58852177 9.21853883,7.4548101 9.51750998,7.58994847 C9.81648113,7.72508684 11.9759961,6.70416239 12.0664829,6.20182077 C12.1569697,5.69947916 10.6925604,4.00916047 10.3518734,4.12398547 Z"
                      id="路径-19" fill="#F6B2B1"></path>
                <path d="M24.9963398,4.12398547 C24.6556528,4.23881047 24.4459428,4.86621545 24.2386368,5.72736861 C24.0313309,6.58852177 23.8630052,7.4548101 24.1619764,7.58994847 C24.4609475,7.72508684 26.6204624,6.70416239 26.7109493,6.20182077 C26.8014361,5.69947916 25.3370267,4.00916047 24.9963398,4.12398547 Z"
                      id="路径-19备份" fill="#F6B2B1"
                      transform="translate(25.357484, 5.860280) scale(-1, 1) translate(-25.357484, -5.860280) "></path>
                <g id="编组-38" transform="translate(0.000000, 10.755827)" fill="#333333" fill-rule="nonzero">
                    <path d="M10.6553476,0.000969223036 L10.8801483,0.00422625114 C11.3717032,0.0207647119 11.8668457,0.114693725 11.8668457,0.593340509 C11.8668457,1.14562526 11.1157679,0.973727497 10.5634831,0.973727497 C10.0111984,0.973727497 9.35553362,1.14562526 9.35553362,0.593340509 C9.35553362,0.0410557588 10.1030629,0.000969223036 10.6553476,0.000969223036 Z"
                          id="椭圆形"></path>
                    <path d="M8.74918232,0.744251758 L8.76697534,1.74409345 C4.94773555,1.81206001 2.65799307,2.3188571 1.97536125,3.14855068 C1.52234775,3.69915846 1.37205274,4.28042877 1.46296967,4.80497848 C1.49048891,4.96375206 1.53978316,5.1060921 1.59966261,5.2161358 L1.66111943,5.31444469 L1.664,5.329 L1.75107764,5.31059705 C2.2550005,5.18174046 3.55881135,4.65295691 3.89078402,4.43924162 L4.0016686,4.35230856 C4.01837009,4.34045161 4.02616412,4.33491836 4.14201131,4.37233003 L4.77264926,4.5937081 L4.71624636,5.03000356 C4.7181854,5.02721302 4.7181854,5.02721302 4.69548371,5.05911667 L4.63905744,5.12151506 L4.26542609,5.48569823 C4.21674383,5.53389031 4.16647285,5.58396308 4.11392559,5.63663949 C3.62294132,6.12883047 3.13348642,6.64837033 2.67654563,7.17574057 C2.35292431,7.54924247 2.06048793,7.91005534 1.80655524,8.25263225 C1.38108162,8.82663254 1.07671944,9.33234385 0.918031141,9.74174197 C0.264617726,11.4274757 0.426163041,12.4964375 0.955612566,12.4964375 C1.04881422,12.4964375 1.22937664,12.3972354 1.45795845,12.1847529 C1.71559293,11.9452639 2.00048796,11.5961662 2.30933008,11.1539437 L2.59001089,10.7318297 C2.8911729,10.2678187 3.26489581,9.67246485 3.31447773,9.61078794 L3.3416753,9.57751091 C3.35507741,9.56270244 3.37317344,9.545429 3.41841351,9.50224539 L3.44639964,9.45843598 C3.50193258,9.38619809 3.5794462,9.4083997 4.12204156,9.56381095 L4.22913871,9.88921344 C4.25542825,9.9833325 4.24557674,9.99701377 4.22094798,10.0312169 L4.20129941,10.0909079 C4.1935172,10.1105531 4.1831965,10.1331082 4.16641992,10.1680582 L4.0204034,10.4716556 C3.97298567,10.573107 3.93683825,10.6558319 3.89286707,10.7630954 C3.78032824,11.0376229 3.69786711,11.295763 3.65397524,11.5298758 C3.57539837,11.9489931 3.62986458,12.2097083 3.79776924,12.3341615 L3.96869892,12.4620688 C4.1018433,12.558249 4.13161101,12.5518496 4.14781513,12.3762821 L4.164,12.116 L4.05289339,11.6663674 C4.0537749,11.6596638 4.05907485,11.6464825 4.07666452,11.6113485 L4.32410718,11.1422669 L4.96629146,11.3174678 L5.00465638,11.388424 L5.04053245,11.4962496 L5.2628936,12.3255429 C5.56849363,13.474768 5.86434167,13.855535 6.08970229,13.855535 C6.48048446,13.855535 7.21410451,12.9811788 7.21410451,12.4540366 C7.21410451,12.3169887 7.11600134,12.0737023 6.85128234,11.5605952 L6.46371782,10.8200435 C5.99989296,9.90923493 5.90802651,9.52345517 6.17130539,9.07801881 C6.32557114,8.81701962 6.59970897,8.66733385 6.91185553,8.770191 C7.0946165,8.83041358 7.21555114,8.94807908 7.33973842,9.12430321 C7.39219262,9.19873673 7.44346206,9.2821549 7.50520537,9.3916314 L7.79669212,9.92746536 C8.05292203,10.3864722 8.2491684,10.6028983 8.31457767,10.6028983 C8.53108965,10.6028983 8.68716408,8.67921515 8.32677736,8.06470241 C7.56445379,6.76482784 7.8454644,4.28465168 9.44990605,2.33935418 L9.62688742,2.13305431 L10.3731126,2.79874795 C8.95201937,4.39175625 8.64758537,6.43252079 9.12798624,7.44264735 L9.18938031,7.55882086 C9.87102897,8.72113278 9.63722233,11.6028983 8.31457767,11.6028983 C8.22408672,11.6028983 8.13891622,11.5934126 8.0579707,11.5744934 L7.961,11.546 L8.01423993,11.6596182 C8.14641367,11.9572593 8.20152957,12.1594881 8.21214577,12.3731632 L8.21410451,12.4540366 C8.21410451,13.4984192 7.07542964,14.855535 6.08970229,14.855535 C5.49062608,14.855535 5.02280884,14.4563408 4.65448585,13.6310473 L4.562,13.408 L4.54761016,13.4178226 C4.22590991,13.5917545 3.80114698,13.5388091 3.32293438,13.2222028 L3.20229641,13.137537 C2.95321845,12.952917 2.79075356,12.7178216 2.70192497,12.4439464 L2.672,12.335 L2.623886,12.3963956 C2.5142231,12.5288629 2.40605745,12.6502864 2.29888307,12.7604377 L2.13880172,12.917182 C1.74254566,13.2855293 1.35866179,13.4964375 0.955612566,13.4964375 C-0.59970112,13.4964375 -0.883058126,11.6214353 -0.0143746171,9.38032877 C0.182287869,8.87296148 0.529049094,8.29680227 1.00319103,7.65714426 C1.2058356,7.3837594 1.42981043,7.10157588 1.67226593,6.81237579 L1.92077611,6.52090285 L2.192,6.214 L2.14353262,6.22991133 C1.96570031,6.28099064 1.81070504,6.3169548 1.69341702,6.33174442 L1.58924882,6.33925144 C0.376059877,6.33925144 -0.0277770224,4.00929474 1.20313639,2.51320135 C2.11457466,1.40540875 4.47543248,0.853643679 8.3560519,0.752833486 L8.74918232,0.744251758 Z"
                          id="路径-21"></path>
                    <path d="M0.241268738,15.7174535 L0.208879825,15.8204098 C0.151650012,16.474954 0.478172799,16.8405031 1.0920823,16.7671726 C1.53865537,16.7138301 1.76467784,16.4209997 1.68731682,16.0475556 C1.63270995,15.7839524 1.42512068,15.5098186 1.18837674,15.3717503 C0.824773032,15.1596978 0.478432323,15.3054972 0.241268738,15.7174535 Z M0.936485226,15.8036655 C1.05433376,15.8723943 1.17283203,16.0288782 1.19771178,16.14898 C1.21402045,16.2277067 1.19587097,16.2512208 1.03277967,16.2707018 L0.954700682,16.2770242 C0.762284003,16.2835563 0.694163187,16.2042696 0.700998899,15.9624232 L0.703,15.92 L0.674590599,15.9669172 C0.770305416,15.8006593 0.825606841,15.7593841 0.898376651,15.7853477 L0.936485226,15.8036655 Z"
                          id="路径-20备份-11"
                          transform="translate(0.952363, 16.025714) scale(-1, -1) rotate(64.000000) translate(-0.952363, -16.025714) "></path>
                    <path d="M4.31630122,16.5253641 C4.25634161,17.7374479 4.53227291,18.3552696 5.21913705,18.19118 C5.6784682,18.0814472 5.84794641,17.6423018 5.78980046,17.080927 C5.74514902,16.6498361 5.56404665,16.1715236 5.35084283,15.922844 C4.92951212,15.4314065 4.5357735,15.7629115 4.31630122,16.5253641 Z M4.97125216,16.2482836 C5.1126408,16.4131984 5.25762597,16.7961212 5.29246116,17.1324403 C5.3279849,17.4754071 5.25329115,17.6689507 5.10295794,17.7048648 C4.89558561,17.7544054 4.76851603,17.4698913 4.80630762,16.6054376 L4.90581792,16.298699 C4.937812,16.2159758 4.94974805,16.2232013 4.97125216,16.2482836 Z"
                          id="路径-20备份-12"
                          transform="translate(5.054570, 16.954114) scale(-1, -1) rotate(12.000000) translate(-5.054570, -16.954114) "></path>
                </g>
                <g id="编组-38"
                   transform="translate(30.500000, 20.255827) scale(-1, 1) translate(-30.500000, -20.255827) translate(24.000000, 10.755827)"
                   fill="#333333" fill-rule="nonzero">
                    <path d="M11.6553476,0.000969223036 L11.8801483,0.00422625114 C12.3717032,0.0207647119 12.8668457,0.114693725 12.8668457,0.593340509 C12.8668457,1.14562526 12.1157679,0.973727497 11.5634831,0.973727497 C11.0111984,0.973727497 10.3555336,1.14562526 10.3555336,0.593340509 C10.3555336,0.0410557588 11.1030629,0.000969223036 11.6553476,0.000969223036 Z"
                          id="椭圆形"></path>
                    <path d="M9.74918232,0.744251758 L9.76697534,1.74409345 C5.94773555,1.81206001 3.65799307,2.3188571 2.97536125,3.14855068 C2.52234775,3.69915846 2.37205274,4.28042877 2.46296967,4.80497848 C2.49048891,4.96375206 2.53978316,5.1060921 2.59966261,5.2161358 L2.66111943,5.31444469 L2.664,5.329 L2.75107764,5.31059705 C3.2550005,5.18174046 4.55881135,4.65295691 4.89078402,4.43924162 L5.0016686,4.35230856 C5.01837009,4.34045161 5.02616412,4.33491836 5.14201131,4.37233003 L5.77264926,4.5937081 L5.71624636,5.03000356 C5.7181854,5.02721302 5.7181854,5.02721302 5.69548371,5.05911667 L5.63905744,5.12151506 L5.26542609,5.48569823 C5.21674383,5.53389031 5.16647285,5.58396308 5.11392559,5.63663949 C4.62294132,6.12883047 4.13348642,6.64837033 3.67654563,7.17574057 C3.35292431,7.54924247 3.06048793,7.91005534 2.80655524,8.25263225 C2.38108162,8.82663254 2.07671944,9.33234385 1.91803114,9.74174197 C1.26461773,11.4274757 1.42616304,12.4964375 1.95561257,12.4964375 C2.04881422,12.4964375 2.22937664,12.3972354 2.45795845,12.1847529 C2.71559293,11.9452639 3.00048796,11.5961662 3.30933008,11.1539437 L3.59001089,10.7318297 C3.8911729,10.2678187 4.26489581,9.67246485 4.31447773,9.61078794 L4.3416753,9.57751091 C4.35507741,9.56270244 4.37317344,9.545429 4.41841351,9.50224539 L4.44639964,9.45843598 C4.50193258,9.38619809 4.5794462,9.4083997 5.12204156,9.56381095 L5.22913871,9.88921344 C5.25542825,9.9833325 5.24557674,9.99701377 5.22094798,10.0312169 L5.20129941,10.0909079 C5.1935172,10.1105531 5.1831965,10.1331082 5.16641992,10.1680582 L5.0204034,10.4716556 C4.97298567,10.573107 4.93683825,10.6558319 4.89286707,10.7630954 C4.78032824,11.0376229 4.69786711,11.295763 4.65397524,11.5298758 C4.57539837,11.9489931 4.62986458,12.2097083 4.79776924,12.3341615 L4.96869892,12.4620688 C5.1018433,12.558249 5.13161101,12.5518496 5.14781513,12.3762821 L5.164,12.116 L5.05289339,11.6663674 C5.0537749,11.6596638 5.05907485,11.6464825 5.07666452,11.6113485 L5.32410718,11.1422669 L5.96629146,11.3174678 L6.00465638,11.388424 L6.04053245,11.4962496 L6.2628936,12.3255429 C6.56849363,13.474768 6.86434167,13.855535 7.08970229,13.855535 C7.48048446,13.855535 8.21410451,12.9811788 8.21410451,12.4540366 C8.21410451,12.3169887 8.11600134,12.0737023 7.85128234,11.5605952 L7.46371782,10.8200435 C6.99989296,9.90923493 6.90802651,9.52345517 7.17130539,9.07801881 C7.32557114,8.81701962 7.59970897,8.66733385 7.91185553,8.770191 C8.0946165,8.83041358 8.21555114,8.94807908 8.33973842,9.12430321 C8.39219262,9.19873673 8.44346206,9.2821549 8.50520537,9.3916314 L8.79669212,9.92746536 C9.05292203,10.3864722 9.2491684,10.6028983 9.31457767,10.6028983 C9.53108965,10.6028983 9.68716408,8.67921515 9.32677736,8.06470241 C8.56445379,6.76482784 8.8454644,4.28465168 10.4499061,2.33935418 L10.6268874,2.13305431 L11.3731126,2.79874795 C9.95201937,4.39175625 9.64758537,6.43252079 10.1279862,7.44264735 L10.1893803,7.55882086 C10.871029,8.72113278 10.6372223,11.6028983 9.31457767,11.6028983 C9.22408672,11.6028983 9.13891622,11.5934126 9.0579707,11.5744934 L8.961,11.546 L9.01423993,11.6596182 C9.14641367,11.9572593 9.20152957,12.1594881 9.21214577,12.3731632 L9.21410451,12.4540366 C9.21410451,13.4984192 8.07542964,14.855535 7.08970229,14.855535 C6.49062608,14.855535 6.02280884,14.4563408 5.65448585,13.6310473 L5.562,13.408 L5.54761016,13.4178226 C5.22590991,13.5917545 4.80114698,13.5388091 4.32293438,13.2222028 L4.20229641,13.137537 C3.95321845,12.952917 3.79075356,12.7178216 3.70192497,12.4439464 L3.672,12.335 L3.623886,12.3963956 C3.5142231,12.5288629 3.40605745,12.6502864 3.29888307,12.7604377 L3.13880172,12.917182 C2.74254566,13.2855293 2.35866179,13.4964375 1.95561257,13.4964375 C0.40029888,13.4964375 0.116941874,11.6214353 0.985625383,9.38032877 C1.18228787,8.87296148 1.52904909,8.29680227 2.00319103,7.65714426 C2.2058356,7.3837594 2.42981043,7.10157588 2.67226593,6.81237579 L2.92077611,6.52090285 L3.192,6.214 L3.14353262,6.22991133 C2.96570031,6.28099064 2.81070504,6.3169548 2.69341702,6.33174442 L2.58924882,6.33925144 C1.37605988,6.33925144 0.972222978,4.00929474 2.20313639,2.51320135 C3.11457466,1.40540875 5.47543248,0.853643679 9.3560519,0.752833486 L9.74918232,0.744251758 Z"
                          id="路径-21"></path>
                    <path d="M1.24126874,15.7174535 L1.20887983,15.8204098 C1.15165001,16.474954 1.4781728,16.8405031 2.0920823,16.7671726 C2.53865537,16.7138301 2.76467784,16.4209997 2.68731682,16.0475556 C2.63270995,15.7839524 2.42512068,15.5098186 2.18837674,15.3717503 C1.82477303,15.1596978 1.47843232,15.3054972 1.24126874,15.7174535 Z M1.93648523,15.8036655 C2.05433376,15.8723943 2.17283203,16.0288782 2.19771178,16.14898 C2.21402045,16.2277067 2.19587097,16.2512208 2.03277967,16.2707018 L1.95470068,16.2770242 C1.762284,16.2835563 1.69416319,16.2042696 1.7009989,15.9624232 L1.703,15.92 L1.6745906,15.9669172 C1.77030542,15.8006593 1.82560684,15.7593841 1.89837665,15.7853477 L1.93648523,15.8036655 Z"
                          id="路径-20备份-11"
                          transform="translate(1.952363, 16.025714) scale(-1, -1) rotate(64.000000) translate(-1.952363, -16.025714) "></path>
                    <path d="M5.31630122,16.5253641 C5.25634161,17.7374479 5.53227291,18.3552696 6.21913705,18.19118 C6.6784682,18.0814472 6.84794641,17.6423018 6.78980046,17.080927 C6.74514902,16.6498361 6.56404665,16.1715236 6.35084283,15.922844 C5.92951212,15.4314065 5.5357735,15.7629115 5.31630122,16.5253641 Z M5.97125216,16.2482836 C6.1126408,16.4131984 6.25762597,16.7961212 6.29246116,17.1324403 C6.3279849,17.4754071 6.25329115,17.6689507 6.10295794,17.7048648 C5.89558561,17.7544054 5.76851603,17.4698913 5.80630762,16.6054376 L5.90581792,16.298699 C5.937812,16.2159758 5.94974805,16.2232013 5.97125216,16.2482836 Z"
                          id="路径-20备份-12"
                          transform="translate(6.054570, 16.954114) scale(-1, -1) rotate(12.000000) translate(-6.054570, -16.954114) "></path>
                </g>
            </g>
        </g>
    </g>
</svg>
