<?xml version="1.0" standalone="no"?><!DOCTYPE svg PUBLIC "-//W3C//DTD SVG 1.1//EN" "http://www.w3.org/Graphics/SVG/1.1/DTD/svg11.dtd"><svg t="1619435056354" class="icon" viewBox="0 0 1024 1024" version="1.1" xmlns="http://www.w3.org/2000/svg" p-id="1031" xmlns:xlink="http://www.w3.org/1999/xlink" width="32" height="32"><defs><style type="text/css"></style></defs><path d="M760 960H214c-82.7 0-150-67.3-150-150V264c0-82.7 67.3-150 150-150h350c16.6 0 30 13.4 30 30s-13.4 30-30 30H214c-23.9 0-46.5 9.4-63.5 26.5-17.1 17-26.5 39.6-26.5 63.5v546c0 23.9 9.4 46.5 26.5 63.5 17.1 17.1 39.6 26.5 63.5 26.5h546c23.9 0 46.5-9.4 63.5-26.5 17.1-17.1 26.5-39.6 26.5-63.5V460c0-16.6 13.4-30 30-30s30 13.4 30 30v350c0 82.7-67.3 150-150 150z" fill="#313144" p-id="1032"></path><path d="M552.6 566.3c-24.3 0-48.7-9.3-67.2-27.8-37-37-37-97.3 0-134.4L816.7 72.9c11.7-11.7 30.7-11.7 42.4 0l91.9 91.9c5.6 5.6 8.8 13.3 8.8 21.2 0 8-3.2 15.6-8.8 21.2L619.8 538.6c-18.5 18.5-42.9 27.7-67.2 27.7z m285.3-429.7l-310 310c-13.6 13.6-13.6 35.9 0 49.5 13.6 13.6 35.9 13.6 49.5 0l310-310-49.5-49.5z" fill="#313144" p-id="1033"></path><path d="M461.7 589c-7.7 0-15.4-2.9-21.2-8.8-11.7-11.7-11.7-30.7 0-42.4l41.8-41.8c11.7-11.7 30.7-11.7 42.4 0s11.7 30.7 0 42.4L483 580.2c-5.9 5.8-13.6 8.8-21.3 8.8z" fill="#313144" p-id="1034"></path></svg>