<?xml version="1.0" encoding="UTF-8"?>
<svg xmlns:xlink="http://www.w3.org/1999/xlink" width="37px" height="31px" viewBox="0 0 37 31" version="1.1"
     xmlns="http://www.w3.org/2000/svg">
    <title>4</title>
    <g id="卡片" stroke="none" stroke-width="1" fill="none" fill-rule="evenodd">
        <g id="Apple-TV" transform="translate(-1078.000000, -270.000000)">
            <g id="4" transform="translate(1078.000000, 270.333845)">
                <path d="M12.0973861,2.1357996 L12.5702912,2.62020404 L13.7944582,3.92571444 C13.8627984,3.99722799 13.9245499,4.06094448 13.9835073,4.12077317 L14.1717712,4.3071205 C14.2287119,4.3617559 14.2799037,4.40896246 14.3255411,4.4488948 L14.3898559,4.50335698 C14.4220338,4.5295734 14.4440492,4.54370898 14.4017158,4.54831455 L14.567666,4.53103221 C14.7695835,4.50390785 15.1205984,4.44424406 15.7771839,4.33038055 C16.3324782,4.23920295 16.7969784,4.17629396 17.2474843,4.1374344 C17.550817,4.11126965 17.8359861,4.09752568 18.1045801,4.09752568 C18.3764522,4.09752568 18.6650118,4.11160403 18.9723939,4.13840668 C19.3290092,4.1695023 19.693139,4.21540752 20.1100975,4.27912539 L20.4334298,4.33030059 C20.6016674,4.35775367 21.2259201,4.46402813 21.3606704,4.4856132 L21.6972928,4.53426865 L21.8958408,4.55002171 C21.8147861,4.55002171 21.8087549,4.54377889 21.828616,4.52394197 L21.8475989,4.50640053 C21.9246622,4.4361867 22.0216196,4.33413547 22.1385117,4.20030366 L22.2299191,4.09397182 C22.3144672,3.99419093 22.4061047,3.88256147 22.5115047,3.75116319 L23.5420647,2.43838964 L23.8703715,2.02991923 C24.7536052,0.948018327 25.2535502,0.5 25.7768718,0.5 C27.0535368,0.5 28.6460022,5.41875048 28.6460022,8.19505136 C28.6460022,8.47119373 28.4221445,8.69505136 28.1460022,8.69505136 C27.8698598,8.69505136 27.6460022,8.47119373 27.6460022,8.19505136 C27.6460022,5.97733643 26.1964464,1.5 25.7768718,1.5 C25.6848495,1.5 25.1691402,2.01392092 24.4604447,2.89130799 L23.2893391,4.37964801 C23.1795432,4.51649234 23.0831458,4.63388772 22.9928603,4.74043981 C22.5019525,5.31979369 22.2492652,5.55002171 21.8958408,5.55002171 L21.7172441,5.5416696 C21.5842882,5.53046578 21.4199354,5.50785506 21.2025012,5.47302521 L20.2723796,5.3172468 L19.6730004,5.22569781 C19.3921412,5.18636903 19.1355766,5.15643007 18.885527,5.13462661 C18.6055237,5.11021129 18.3455106,5.09752568 18.1045801,5.09752568 C17.8665684,5.09752568 17.6096517,5.109908 17.3334228,5.13373485 C16.9125033,5.17004236 16.4714163,5.2297804 15.9392112,5.31716684 L14.9877928,5.47958801 C14.6751032,5.52903294 14.4902515,5.55002171 14.3570536,5.55002171 C14.0617837,5.55002171 13.8370381,5.38696098 13.3968428,4.94901388 L12.9619615,4.50131999 L11.9541004,3.4233496 L11.7449522,3.2043831 C10.9131336,2.34144528 10.3044612,1.84891491 10.1324785,1.84891491 C9.90168509,1.84891491 9.20284755,4.07330159 8.55657448,8.01639411 C8.51191066,8.28890054 8.25479337,8.47360347 7.98228694,8.42893965 C7.70978051,8.38427583 7.52507758,8.12715855 7.5697414,7.85465212 L7.68793151,7.14877389 C8.43195367,2.80434854 9.09801707,0.848914914 10.1324785,0.848914914 C10.650332,0.848914914 11.220851,1.26127308 12.0973861,2.1357996 Z"
                      id="路径-17" fill="#333333" fill-rule="nonzero"></path>
                <path d="M6.32810085,8.66455601 C6.51447982,8.4607976 6.83074866,8.44670879 7.03450707,8.63308776 C7.23826548,8.81946674 7.25235429,9.13573558 7.06597531,9.33949398 C3.45490726,13.2872862 1.99431677,17.4612752 2.65435071,21.8946431 C3.2959909,26.2044625 6.86578115,28.4495962 13.5508705,28.6243625 C13.8269186,28.6315791 14.0448495,28.8612105 14.0376329,29.1372586 C14.0304162,29.4133066 13.8007848,29.6312376 13.5247368,29.6241951 C6.40591584,29.4379157 2.39037131,26.9124356 1.66525225,22.0418988 C0.958526945,17.2949106 2.52276086,12.8247356 6.32810085,8.66455601 Z"
                      id="路径-18" fill="#333333" fill-rule="nonzero"></path>
                <path d="M16,19.5332157 L17.9402699,18.6661552 L20,19.5332157 L20.6913249,23.0817444 C20.7969245,23.6238339 20.4430892,24.1488961 19.9010017,24.2545057 C19.7747108,24.2791097 19.6448585,24.2791104 19.5185673,24.254508 C18.9818359,24.1499485 18.4557367,24.0976688 17.9402699,24.0976688 C17.4538355,24.0976688 16.967716,24.1442253 16.4819114,24.2373383 C15.9395034,24.3412904 15.4155187,23.9858609 15.311557,23.4434548 C15.2875286,23.3180898 15.2877243,23.1892837 15.3121336,23.0639924 L16,19.5332157 L16,19.5332157 Z"
                      id="矩形" fill="#F6B2B1"></path>
                <path d="M27.3278117,8.66455601 C27.5141906,8.4607976 27.8304595,8.44670879 28.0342179,8.63308776 C28.2379763,8.81946674 28.2520651,9.13573558 28.0656861,9.33949398 C24.4546181,13.2872862 22.9940276,17.4612752 23.6540615,21.8946431 C24.2957017,26.2044625 27.865492,28.4495962 34.5505813,28.6243625 C34.8266294,28.6315791 35.0445603,28.8612105 35.0373437,29.1372586 C35.030127,29.4133066 34.8004956,29.6312376 34.5244476,29.6241951 C27.4056266,29.4379157 23.3900821,26.9124356 22.6649631,22.0418988 C21.9582378,17.2949106 23.5224717,12.8247356 27.3278117,8.66455601 Z"
                      id="路径-18备份" fill="#333333" fill-rule="nonzero"
                      transform="translate(28.768709, 19.063108) scale(-1, 1) translate(-28.768709, -19.063108) "></path>
                <g id="编组-30" transform="translate(0.000000, 14.849168)" fill="#333333" fill-rule="nonzero">
                    <path d="M0.532121855,0.000945854524 L0.621267813,0.0149287499 L4.62126781,1.01492875 C4.88916527,1.08190311 5.05204561,1.35337036 4.98507125,1.62126781 C4.92553848,1.85939888 4.70443109,2.01455347 4.46787814,1.99905415 L4.37873219,1.98507125 L0.378732187,0.98507125 C0.110834733,0.918096887 -0.0520456136,0.646629641 0.0149287499,0.378732187 C0.0744615175,0.140601117 0.295568908,-0.0145534734 0.532121855,0.000945854524 Z"
                          id="直线-2"></path>
                    <path d="M4.43798263,2.50386106 C4.7119926,2.46960982 4.96188769,2.66397266 4.99613894,2.93798263 C5.02658449,3.18154705 4.87639668,3.40605774 4.65019979,3.47699778 L4.56201737,3.49613894 L0.562017367,3.99613894 C0.288007398,4.03039018 0.0381123078,3.83602734 0.00386106164,3.56201737 C-0.0265844905,3.31845295 0.123603316,3.09394226 0.349800214,3.02300222 L0.437982633,3.00386106 L4.43798263,2.50386106 Z"
                          id="直线-2备份"></path>
                </g>
                <g id="编组-22"
                   transform="translate(34.500000, 17.349168) scale(-1, 1) translate(-34.500000, -17.349168) translate(32.000000, 14.849168)"
                   fill="#333333" fill-rule="nonzero">
                    <path d="M0.532121855,0.000945854524 L0.621267813,0.0149287499 L4.62126781,1.01492875 C4.88916527,1.08190311 5.05204561,1.35337036 4.98507125,1.62126781 C4.92553848,1.85939888 4.70443109,2.01455347 4.46787814,1.99905415 L4.37873219,1.98507125 L0.378732187,0.98507125 C0.110834733,0.918096887 -0.0520456136,0.646629641 0.0149287499,0.378732187 C0.0744615175,0.140601117 0.295568908,-0.0145534734 0.532121855,0.000945854524 Z"
                          id="直线-2备份-2"></path>
                    <path d="M4.43798263,2.50386106 C4.7119926,2.46960982 4.96188769,2.66397266 4.99613894,2.93798263 C5.02658449,3.18154705 4.87639668,3.40605774 4.65019979,3.47699778 L4.56201737,3.49613894 L0.562017367,3.99613894 C0.288007398,4.03039018 0.0381123078,3.83602734 0.00386106164,3.56201737 C-0.0265844905,3.31845295 0.123603316,3.09394226 0.349800214,3.02300222 L0.437982633,3.00386106 L4.43798263,2.50386106 Z"
                          id="直线-2备份-3"></path>
                </g>
                <path d="M10.592839,15.8491679 C11.1451238,15.8491679 11.592839,16.2968832 11.592839,16.8491679 C11.592839,17.4014527 11.1451238,17.8491679 10.592839,17.8491679 C10.0405543,17.8491679 9.59283902,17.4014527 9.59283902,16.8491679 C9.59283902,16.2968832 10.0405543,15.8491679 10.592839,15.8491679 Z M10.592839,16.3491679 C10.3166966,16.3491679 10.092839,16.5730255 10.092839,16.8491679 C10.092839,17.1253103 10.3166966,17.3491679 10.592839,17.3491679 C10.8689814,17.3491679 11.092839,17.1253103 11.092839,16.8491679 C11.092839,16.5730255 10.8689814,16.3491679 10.592839,16.3491679 Z"
                      id="椭圆形" fill="#333333" fill-rule="nonzero"></path>
                <path d="M8,21.3491679 C9.1045695,21.3491679 10,20.4537374 10,19.3491679 C10,18.2445984 9.1045695,17.3491679 8,17.3491679 C6.8954305,17.3491679 6,18.2445984 6,19.3491679 C6,20.4537374 6.8954305,21.3491679 8,21.3491679 Z"
                      id="椭圆形备份-6" fill="#F6B2B1"></path>
                <path d="M26.9901994,10.8491679 C27.5518488,11.2763532 28.0887981,12.6674076 26.9901994,12.8385491 C26.2578003,12.9526434 25.9277339,12.4707294 26,11.392807"
                      id="路径-20" fill="#7DCEF4"></path>
                <path d="M13.9999347,7.84916791 C14.561584,8.27635324 15.0985333,9.6674076 13.9999347,9.83854908 C13.2675356,9.9526434 12.9374691,9.47072937 13.0097352,8.39280697"
                      id="路径-20备份" fill="#7DCEF4"
                      transform="translate(13.819022, 8.852049) scale(-1, 1) translate(-13.819022, -8.852049) "></path>
                <path d="M9.19693634,23.9928512 C9.5398145,24.4200365 9.86761368,25.8110908 9.19693634,25.9822323 C8.7498181,26.0963266 8.54831767,25.6144126 8.59243502,24.5364902"
                      id="路径-20备份-2" fill="#7DCEF4"
                      transform="translate(9.086492, 24.995732) scale(-1, 1) rotate(3.000000) translate(-9.086492, -24.995732) "></path>
                <path d="M33.6104445,6.84916791 C33.9533227,7.27635324 34.2811219,8.6674076 33.6104445,8.83854908 C33.1633263,8.9526434 32.9618258,8.47072937 33.0059432,7.39280697"
                      id="路径-20备份-5" fill="#7DCEF4"
                      transform="translate(33.500000, 7.852049) scale(-1, -1) rotate(64.000000) translate(-33.500000, -7.852049) "></path>
                <path d="M31.6104445,5.84916791 C31.9533227,6.27512604 32.2811219,7.66218426 31.6104445,7.83283409 C31.1633263,7.94660065 30.9618258,7.46607103 31.0059432,6.39124524"
                      id="路径-20备份-6" fill="#7DCEF4"
                      transform="translate(31.500000, 6.849168) scale(-1, -1) rotate(37.000000) translate(-31.500000, -6.849168) "></path>
                <path d="M6.89877786,20.8081131 C7.4604272,21.2352984 7.99737652,22.6263528 6.89877786,22.7974943 C6.16637875,22.9115886 5.83631226,22.4296746 5.90857841,21.3517522 C5.8385876,20.810358 5.67649648,20.4091684 5.42230503,20.1481833"
                      id="路径-20备份-3" fill="#7DCEF4"
                      transform="translate(6.479596, 21.481029) scale(-1, 1) rotate(22.000000) translate(-6.479596, -21.481029) "></path>
                <path d="M31.3805899,25.1602712 C31.1593509,25.7920514 31.2359479,26.2503365 31.6103808,26.5351268 C32.1720301,26.9623121 32.7089794,28.3533665 31.6103808,28.5245079 C30.8779817,28.6386023 30.5479152,28.1566882 30.6201813,27.0787658 C30.5501905,26.5373717 30.3880994,26.136182 30.1339079,25.875197"
                      id="路径-20备份-4" fill="#7DCEF4"
                      transform="translate(31.191199, 26.850580) rotate(22.000000) translate(-31.191199, -26.850580) "></path>
                <path d="M28,21.3491679 C29.1045695,21.3491679 30,20.4537374 30,19.3491679 C30,18.2445984 29.1045695,17.3491679 28,17.3491679 C26.8954305,17.3491679 26,18.2445984 26,19.3491679 C26,20.4537374 26.8954305,21.3491679 28,21.3491679 Z"
                      id="椭圆形备份-7" fill="#F6B2B1"></path>
                <path d="M25.3672842,15.8491679 C25.9195689,15.8491679 26.3672842,16.2968832 26.3672842,16.8491679 C26.3672842,17.4014527 25.9195689,17.8491679 25.3672842,17.8491679 C24.8149994,17.8491679 24.3672842,17.4014527 24.3672842,16.8491679 C24.3672842,16.2968832 24.8149994,15.8491679 25.3672842,15.8491679 Z M25.3672842,16.3491679 C25.0911418,16.3491679 24.8672842,16.5730255 24.8672842,16.8491679 C24.8672842,17.1253103 25.0911418,17.3491679 25.3672842,17.3491679 C25.6434266,17.3491679 25.8672842,17.1253103 25.8672842,16.8491679 C25.8672842,16.5730255 25.6434266,16.3491679 25.3672842,16.3491679 Z"
                      id="椭圆形备份-5" fill="#333333" fill-rule="nonzero"></path>
                <g id="编组-31" transform="translate(14.440270, 16.349168)" fill="#333333">
                    <path d="M3.55973011,1 C4.11201486,1 4.4209444,0.776142375 4.4209444,0.5 C4.4209444,0.223857625 4.11201486,0 3.55973011,0 C3.00744536,0 2.73769821,0.223857625 2.73769821,0.5 C2.73769821,0.776142375 3.00744536,1 3.55973011,1 Z"
                          id="椭圆形备份-8"></path>
                    <path d="M1.62321956,-0.283998418 C2.72778906,-0.283998418 3.62321956,0.611432083 3.62321956,1.71600158 C3.62321956,2.77036338 2.80734177,3.6341667 1.77248191,3.71051585 L1.62321956,3.71600158 L1,3.71600158 C0.723857625,3.71600158 0.5,3.49214396 0.5,3.21600158 C0.5,2.97054169 0.676875161,2.76639321 0.910124368,2.72405725 L1,2.71600158 L1.62321956,2.71600158 C2.17550431,2.71600158 2.62321956,2.26828633 2.62321956,1.71600158 C2.62321956,1.20316574 2.23717937,0.780494422 1.73984069,0.722729314 L1.62321956,0.716001582 L1,0.716001582 C0.723857625,0.716001582 0.5,0.492143957 0.5,0.216001582 C0.5,-0.0294583065 0.676875161,-0.233606788 0.910124368,-0.275942748 L1,-0.283998418 L1.62321956,-0.283998418 Z"
                          id="矩形" fill-rule="nonzero"
                          transform="translate(2.061610, 1.716002) rotate(-270.000000) translate(-2.061610, -1.716002) "></path>
                    <path d="M4.62321956,-0.283998418 C5.72778906,-0.283998418 6.62321956,0.611432083 6.62321956,1.71600158 C6.62321956,2.77036338 5.80734177,3.6341667 4.77248191,3.71051585 L4.62321956,3.71600158 L4,3.71600158 C3.72385763,3.71600158 3.5,3.49214396 3.5,3.21600158 C3.5,2.97054169 3.67687516,2.76639321 3.91012437,2.72405725 L4,2.71600158 L4.62321956,2.71600158 C5.17550431,2.71600158 5.62321956,2.26828633 5.62321956,1.71600158 C5.62321956,1.20316574 5.23717937,0.780494422 4.73984069,0.722729314 L4.62321956,0.716001582 L4,0.716001582 C3.72385763,0.716001582 3.5,0.492143957 3.5,0.216001582 C3.5,-0.0294583065 3.67687516,-0.233606788 3.91012437,-0.275942748 L4,-0.283998418 L4.62321956,-0.283998418 Z"
                          id="矩形备份-11" fill-rule="nonzero"
                          transform="translate(5.061610, 1.716002) rotate(-270.000000) translate(-5.061610, -1.716002) "></path>
                </g>
                <path d="M10.3518734,4.12398547 C10.0111864,4.23881047 9.8014764,4.86621545 9.59417046,5.72736861 C9.38686453,6.58852177 9.21853883,7.4548101 9.51750998,7.58994847 C9.81648113,7.72508684 11.9759961,6.70416239 12.0664829,6.20182077 C12.1569697,5.69947916 10.6925604,4.00916047 10.3518734,4.12398547 Z"
                      id="路径-19" fill="#F6B2B1"></path>
                <path d="M24.9963398,4.12398547 C24.6556528,4.23881047 24.4459428,4.86621545 24.2386368,5.72736861 C24.0313309,6.58852177 23.8630052,7.4548101 24.1619764,7.58994847 C24.4609475,7.72508684 26.6204624,6.70416239 26.7109493,6.20182077 C26.8014361,5.69947916 25.3370267,4.00916047 24.9963398,4.12398547 Z"
                      id="路径-19备份" fill="#F6B2B1"
                      transform="translate(25.357484, 5.860280) scale(-1, 1) translate(-25.357484, -5.860280) "></path>
                <path d="M17.9402699,17.8491679 L20,18.8491679 L20.7269721,23.1527936 C20.8189795,23.69737 20.4520841,24.2134118 19.907505,24.3054026 C19.7793406,24.3270522 19.6481848,24.3235086 19.5213764,24.2949701 C18.9836715,24.1739583 18.456636,24.1134524 17.9402699,24.1134524 C17.4528052,24.1134524 16.9656568,24.1673747 16.4788246,24.2752194 C15.9396027,24.3946981 15.4056375,24.0544021 15.286186,23.5151742 C15.2583182,23.3893735 15.2550245,23.2593727 15.276486,23.1323222 L16,18.8491679 L17.9402699,17.8491679 Z M17.954,18.967 L16.903,19.509 L16.2625171,23.2988834 L16.5972684,23.2321833 C17.0438931,23.1530989 17.4917702,23.1134524 17.9402699,23.1134524 C18.4134559,23.1134524 18.892454,23.1575786 19.3767397,23.2453586 L19.7409373,23.3193713 L19.099,19.523 L17.954,18.967 Z"
                      id="矩形" fill="#333333" fill-rule="nonzero"></path>
                <path d="M26.7912155,10.6978226 C26.8748013,10.5879268 27.031649,10.5665983 27.1415448,10.650184 C27.4841507,10.910767 27.7846743,11.4283406 27.8596971,11.9006565 C27.9566393,12.5109687 27.6762775,12.984686 27.0286807,13.0855697 C26.10484,13.2294871 25.6689691,12.5930932 25.7505599,11.376084 C25.7597958,11.2383221 25.878961,11.1341311 26.016723,11.1433669 C26.1544849,11.1526028 26.2586759,11.271768 26.2494401,11.40953 C26.1864986,12.3483655 26.4107607,12.6757997 26.9517182,12.5915284 C27.3027781,12.5368398 27.4223806,12.3347516 27.3658878,11.9790933 C27.310708,11.6317019 27.077086,11.2293488 26.8388541,11.0481518 C26.7289583,10.9645661 26.7076298,10.8077184 26.7912155,10.6978226 Z"
                      id="路径-20" fill="#333333" fill-rule="nonzero"></path>
                <path d="M13.8009508,7.69782258 C13.8845365,7.58792681 14.0413842,7.56659829 14.15128,7.65018401 C14.493886,7.91076695 14.7944096,8.42834063 14.8694323,8.90065653 C14.9663745,9.5109687 14.6860127,9.98468603 14.0384159,10.0855697 C13.1145752,10.2294871 12.6787043,9.59309322 12.7602952,8.376084 C12.769531,8.23832206 12.8886963,8.13413107 13.0264582,8.14336692 C13.1642201,8.15260276 13.2684111,8.27176801 13.2591753,8.40952995 C13.1962338,9.34836551 13.4204959,9.67579969 13.9614534,9.59152845 C14.3125133,9.53683976 14.4321159,9.33475162 14.375623,8.97909334 C14.3204432,8.63170186 14.0868213,8.22934882 13.8485893,8.0481518 C13.7386936,7.96456609 13.7173651,7.80771835 13.8009508,7.69782258 Z"
                      id="路径-20备份" fill="#333333" fill-rule="nonzero"
                      transform="translate(13.819383, 8.852396) scale(-1, 1) translate(-13.819383, -8.852396) "></path>
                <path d="M9.04044834,23.7978858 C9.14812476,23.7114598 9.3054758,23.7286867 9.39190174,23.8363632 C9.93928793,24.5183411 10.0843026,26.0138079 9.25874984,26.22447 C8.5637513,26.4018177 8.29243874,25.752939 8.34264415,24.5262667 C8.34829042,24.3883111 8.46470281,24.2810531 8.6026585,24.2866993 C8.74061419,24.2923456 8.84787216,24.408758 8.84222589,24.5467137 C8.8041966,25.4758862 8.93588491,25.7908356 9.13512284,25.7399947 C9.4626736,25.6564112 9.35975879,24.5951002 9.00197094,24.1493392 C8.915545,24.0416627 8.93277192,23.8843117 9.04044834,23.7978858 Z"
                      id="路径-20备份-2" fill="#333333" fill-rule="nonzero"
                      transform="translate(9.088500, 24.998089) scale(-1, 1) rotate(3.000000) translate(-9.088500, -24.998089) "></path>
                <path d="M33.4539565,6.65420251 C33.5616329,6.56777657 33.718984,6.58500349 33.8054099,6.69267991 C34.3527961,7.37465788 34.4978108,8.87012461 33.672258,9.08078675 C32.9772595,9.25813444 32.7059469,8.60925579 32.7561523,7.3825835 C32.7617986,7.24462781 32.878211,7.13736983 33.0161667,7.1430161 C33.1541224,7.14866237 33.2613803,7.26507476 33.2557341,7.40303045 C33.2177048,8.33220294 33.3493931,8.64715236 33.548631,8.5963114 C33.8761818,8.51272796 33.773267,7.45141693 33.4154791,7.0056559 C33.3290532,6.89797949 33.3462801,6.74062844 33.4539565,6.65420251 Z"
                      id="路径-20备份-5" fill="#333333" fill-rule="nonzero"
                      transform="translate(33.502008, 7.854405) scale(-1, -1) rotate(64.000000) translate(-33.502008, -7.854405) "></path>
                <path d="M31.4536828,5.65442253 C31.5612377,5.56784542 31.7186128,5.58485128 31.8051899,5.69240617 C32.3528302,6.37274066 32.4979488,7.86497976 31.6720913,8.07511426 C30.9774509,8.25186134 30.7059387,7.60437065 30.7561535,6.38099236 C30.761816,6.24303733 30.8782411,6.13579306 31.0161961,6.14145557 C31.1541511,6.14711808 31.2613954,6.26354309 31.2557329,6.40149812 C31.217713,7.32777141 31.3492017,7.64133996 31.5487978,7.59055393 C31.8760438,7.50728813 31.7732329,6.45009444 31.4156991,6.00592964 C31.329122,5.89837474 31.3461279,5.74099965 31.4536828,5.65442253 Z"
                      id="路径-20备份-6" fill="#333333" fill-rule="nonzero"
                      transform="translate(31.502017, 6.851507) scale(-1, -1) rotate(37.000000) translate(-31.502017, -6.851507) "></path>
                <path d="M5.24787465,19.969091 C5.34678458,19.8727558 5.50506206,19.874843 5.6013973,19.9737529 C5.89808753,20.2783726 6.08014898,20.7289905 6.15801846,21.3684752 C6.09507699,22.3073107 6.31933908,22.6347449 6.86029658,22.5504736 C7.21135653,22.495785 7.33095905,22.2936968 7.27446619,21.9380385 C7.21928643,21.5906471 6.98566446,21.188294 6.74743253,21.007097 C6.63753676,20.9235113 6.61620824,20.7666636 6.69979396,20.6567678 C6.78337967,20.546872 6.94022741,20.5255435 7.05012318,20.6091292 C7.39272914,20.8697122 7.69325274,21.3872858 7.76827553,21.8596017 C7.86521769,22.4699139 7.58485593,22.9436312 6.93725913,23.0445149 C6.01341841,23.1884323 5.57754754,22.5520384 5.66064171,21.3838051 C5.59702622,20.8917255 5.45490542,20.5399642 5.24321275,20.3226137 C5.14687751,20.2237038 5.14896471,20.0654263 5.24787465,19.969091 Z"
                      id="路径-20备份-3" fill="#333333" fill-rule="nonzero"
                      transform="translate(6.479641, 21.481403) scale(-1, 1) rotate(22.000000) translate(-6.479641, -21.481403) "></path>
                <path d="M31.4632161,24.9243202 C31.5935283,24.9699533 31.6621742,25.1125852 31.616541,25.2428974 C31.4449684,25.7328479 31.476897,26.0617411 31.6917899,26.2754424 L31.7617261,26.3361429 C32.1043321,26.5967258 32.4048557,27.1142995 32.4798785,27.5866154 C32.5768206,28.1969276 32.2964589,28.6706449 31.6488621,28.7715286 C30.7250213,28.915446 30.2891505,28.2790521 30.3722446,27.1108188 C30.3086291,26.6187391 30.1665083,26.2669778 29.9548157,26.0496274 C29.8584804,25.9507174 29.8605676,25.7924399 29.9594776,25.6961047 C30.0583875,25.5997695 30.216665,25.6018567 30.3130002,25.7007666 C30.6096904,26.0053863 30.7917519,26.4560042 30.8696214,27.0954888 C30.8066799,28.0343244 31.030942,28.3617585 31.5718995,28.2774873 C31.9229595,28.2227986 32.042562,28.0207105 31.9860691,27.6650522 C31.9377868,27.3610846 31.7528847,27.0150372 31.5478168,26.8118869 L31.4590355,26.7341107 C30.986578,26.3747639 30.8908907,25.8022597 31.1446388,25.0776451 C31.1826665,24.9690516 31.2880544,24.9032819 31.3975395,24.9107832 L31.4632161,24.9243202 Z"
                      id="路径-20备份-4" fill="#333333" fill-rule="nonzero"
                      transform="translate(31.191244, 26.850919) rotate(22.000000) translate(-31.191244, -26.850919) "></path>
            </g>
        </g>
    </g>
</svg>
