<?xml version="1.0" encoding="UTF-8"?>
<svg xmlns:xlink="http://www.w3.org/1999/xlink" width="36px" height="31px" viewBox="0 0 36 31" version="1.1"
     xmlns="http://www.w3.org/2000/svg">
    <title>5</title>
    <g id="卡片" stroke="none" stroke-width="1" fill="none" fill-rule="evenodd">
        <g id="Apple-TV" transform="translate(-1125.000000, -270.000000)">
            <g id="5" transform="translate(1125.000000, 270.333845)">
                <path d="M12.0973861,2.1357996 L12.5702912,2.62020404 L13.7944582,3.92571444 C13.8627984,3.99722799 13.9245499,4.06094448 13.9835073,4.12077317 L14.1717712,4.3071205 C14.2287119,4.3617559 14.2799037,4.40896246 14.3255411,4.4488948 L14.3898559,4.50335698 C14.4220338,4.5295734 14.4440492,4.54370898 14.4017158,4.54831455 L14.567666,4.53103221 C14.7695835,4.50390785 15.1205984,4.44424406 15.7771839,4.33038055 C16.3324782,4.23920295 16.7969784,4.17629396 17.2474843,4.1374344 C17.550817,4.11126965 17.8359861,4.09752568 18.1045801,4.09752568 C18.3764522,4.09752568 18.6650118,4.11160403 18.9723939,4.13840668 C19.3290092,4.1695023 19.693139,4.21540752 20.1100975,4.27912539 L20.4334298,4.33030059 C20.6016674,4.35775367 21.2259201,4.46402813 21.3606704,4.4856132 L21.6972928,4.53426865 L21.8958408,4.55002171 C21.8147861,4.55002171 21.8087549,4.54377889 21.828616,4.52394197 L21.8475989,4.50640053 C21.9246622,4.4361867 22.0216196,4.33413547 22.1385117,4.20030366 L22.2299191,4.09397182 C22.3144672,3.99419093 22.4061047,3.88256147 22.5115047,3.75116319 L23.5420647,2.43838964 L23.8703715,2.02991923 C24.7536052,0.948018327 25.2535502,0.5 25.7768718,0.5 C27.0535368,0.5 28.6460022,5.41875048 28.6460022,8.19505136 C28.6460022,8.47119373 28.4221445,8.69505136 28.1460022,8.69505136 C27.8698598,8.69505136 27.6460022,8.47119373 27.6460022,8.19505136 C27.6460022,5.97733643 26.1964464,1.5 25.7768718,1.5 C25.6848495,1.5 25.1691402,2.01392092 24.4604447,2.89130799 L23.2893391,4.37964801 C23.1795432,4.51649234 23.0831458,4.63388772 22.9928603,4.74043981 C22.5019525,5.31979369 22.2492652,5.55002171 21.8958408,5.55002171 L21.7172441,5.5416696 C21.5842882,5.53046578 21.4199354,5.50785506 21.2025012,5.47302521 L20.2723796,5.3172468 L19.6730004,5.22569781 C19.3921412,5.18636903 19.1355766,5.15643007 18.885527,5.13462661 C18.6055237,5.11021129 18.3455106,5.09752568 18.1045801,5.09752568 C17.8665684,5.09752568 17.6096517,5.109908 17.3334228,5.13373485 C16.9125033,5.17004236 16.4714163,5.2297804 15.9392112,5.31716684 L14.9877928,5.47958801 C14.6751032,5.52903294 14.4902515,5.55002171 14.3570536,5.55002171 C14.0617837,5.55002171 13.8370381,5.38696098 13.3968428,4.94901388 L12.9619615,4.50131999 L11.9541004,3.4233496 L11.7449522,3.2043831 C10.9131336,2.34144528 10.3044612,1.84891491 10.1324785,1.84891491 C9.90168509,1.84891491 9.20284755,4.07330159 8.55657448,8.01639411 C8.51191066,8.28890054 8.25479337,8.47360347 7.98228694,8.42893965 C7.70978051,8.38427583 7.52507758,8.12715855 7.5697414,7.85465212 L7.68793151,7.14877389 C8.43195367,2.80434854 9.09801707,0.848914914 10.1324785,0.848914914 C10.650332,0.848914914 11.220851,1.26127308 12.0973861,2.1357996 Z"
                      id="路径-17" fill="#333333" fill-rule="nonzero"></path>
                <path d="M6.32810085,8.66455601 C6.51447982,8.4607976 6.83074866,8.44670879 7.03450707,8.63308776 C7.23826548,8.81946674 7.25235429,9.13573558 7.06597531,9.33949398 C3.45490726,13.2872862 1.99431677,17.4612752 2.65435071,21.8946431 C3.2959909,26.2044625 6.86578115,28.4495962 13.5508705,28.6243625 C13.8269186,28.6315791 14.0448495,28.8612105 14.0376329,29.1372586 C14.0304162,29.4133066 13.8007848,29.6312376 13.5247368,29.6241951 C6.40591584,29.4379157 2.39037131,26.9124356 1.66525225,22.0418988 C0.958526945,17.2949106 2.52276086,12.8247356 6.32810085,8.66455601 Z"
                      id="路径-18" fill="#333333" fill-rule="nonzero"></path>
                <path d="M16.2186085,14.1659256 L17.8186346,13.2952846 L19.8783647,14.2952846 L21.265324,23.1278814 C21.3509849,23.6734758 20.9781465,24.1852175 20.432554,24.2708904 C20.3097701,24.2901709 20.1844679,24.2863928 20.0630687,24.2597499 C19.2093102,24.0723798 18.4611655,23.9786947 17.8186346,23.9786947 C17.2553149,23.9786947 16.6683113,24.0364971 16.0576238,24.1521019 C15.5149869,24.2547947 14.991825,23.8981773 14.8891034,23.3555459 C14.8681719,23.2449742 14.866055,23.1316625 14.8828419,23.0203862 L16.2186085,14.1659256 L16.2186085,14.1659256 Z"
                      id="矩形备份-12" fill="#F6B2B1"></path>
                <path d="M27.3278117,8.66455601 C27.5141906,8.4607976 27.8304595,8.44670879 28.0342179,8.63308776 C28.2379763,8.81946674 28.2520651,9.13573558 28.0656861,9.33949398 C24.4546181,13.2872862 22.9940276,17.4612752 23.6540615,21.8946431 C24.2957017,26.2044625 27.865492,28.4495962 34.5505813,28.6243625 C34.8266294,28.6315791 35.0445603,28.8612105 35.0373437,29.1372586 C35.030127,29.4133066 34.8004956,29.6312376 34.5244476,29.6241951 C27.4056266,29.4379157 23.3900821,26.9124356 22.6649631,22.0418988 C21.9582378,17.2949106 23.5224717,12.8247356 27.3278117,8.66455601 Z"
                      id="路径-18备份" fill="#333333" fill-rule="nonzero"
                      transform="translate(28.768709, 19.063108) scale(-1, 1) translate(-28.768709, -19.063108) "></path>
                <g id="编组-26" transform="translate(0.000000, 10.849168)" fill="#333333" fill-rule="nonzero">
                    <path d="M0.532121855,0.000945854524 L0.621267813,0.0149287499 L4.62126781,1.01492875 C4.88916527,1.08190311 5.05204561,1.35337036 4.98507125,1.62126781 C4.92553848,1.85939888 4.70443109,2.01455347 4.46787814,1.99905415 L4.37873219,1.98507125 L0.378732187,0.98507125 C0.110834733,0.918096887 -0.0520456136,0.646629641 0.0149287499,0.378732187 C0.0744615175,0.140601117 0.295568908,-0.0145534734 0.532121855,0.000945854524 Z"
                          id="直线-2"></path>
                    <path d="M4.43798263,2.50386106 C4.7119926,2.46960982 4.96188769,2.66397266 4.99613894,2.93798263 C5.02658449,3.18154705 4.87639668,3.40605774 4.65019979,3.47699778 L4.56201737,3.49613894 L0.562017367,3.99613894 C0.288007398,4.03039018 0.0381123078,3.83602734 0.00386106164,3.56201737 C-0.0265844905,3.31845295 0.123603316,3.09394226 0.349800214,3.02300222 L0.437982633,3.00386106 L4.43798263,2.50386106 Z"
                          id="直线-2备份"></path>
                </g>
                <g id="编组-22"
                   transform="translate(33.500000, 13.349168) scale(-1, 1) translate(-33.500000, -13.349168) translate(31.000000, 10.849168)"
                   fill="#333333" fill-rule="nonzero">
                    <path d="M0.532121855,0.000945854524 L0.621267813,0.0149287499 L4.62126781,1.01492875 C4.88916527,1.08190311 5.05204561,1.35337036 4.98507125,1.62126781 C4.92553848,1.85939888 4.70443109,2.01455347 4.46787814,1.99905415 L4.37873219,1.98507125 L0.378732187,0.98507125 C0.110834733,0.918096887 -0.0520456136,0.646629641 0.0149287499,0.378732187 C0.0744615175,0.140601117 0.295568908,-0.0145534734 0.532121855,0.000945854524 Z"
                          id="直线-2备份-2"></path>
                    <path d="M4.43798263,2.50386106 C4.7119926,2.46960982 4.96188769,2.66397266 4.99613894,2.93798263 C5.02658449,3.18154705 4.87639668,3.40605774 4.65019979,3.47699778 L4.56201737,3.49613894 L0.562017367,3.99613894 C0.288007398,4.03039018 0.0381123078,3.83602734 0.00386106164,3.56201737 C-0.0265844905,3.31845295 0.123603316,3.09394226 0.349800214,3.02300222 L0.437982633,3.00386106 L4.43798263,2.50386106 Z"
                          id="直线-2备份-3"></path>
                </g>
                <path d="M8,16.3491679 C9.1045695,16.3491679 10,15.4537374 10,14.3491679 C10,13.2445984 9.1045695,12.3491679 8,12.3491679 C6.8954305,12.3491679 6,13.2445984 6,14.3491679 C6,15.4537374 6.8954305,16.3491679 8,16.3491679 Z"
                      id="椭圆形备份-6" fill="#F6B2B1"></path>
                <path d="M10.521235,12.8400071 C11.0828844,13.2671924 12.1393566,14.9641902 11.0695454,15.396422 C10.356338,15.6845765 9.84350138,15.0136512 9.53103557,13.3836462"
                      id="路径-20备份-7" fill="#7DCEF4"
                      transform="translate(10.530295, 14.150680) scale(-1, 1) rotate(22.000000) translate(-10.530295, -14.150680) "></path>
                <path d="M25.3160116,12.9265538 C25.877661,13.3537391 26.9341332,15.0507369 25.864322,15.4829687 C25.1511146,15.7711232 24.638278,15.1001979 24.3258122,13.4701928"
                      id="路径-20备份-9" fill="#7DCEF4"
                      transform="translate(25.325072, 14.237227) rotate(22.000000) translate(-25.325072, -14.237227) "></path>
                <path d="M25.4740103,16.9664264 C26.0356597,17.3936118 27.4812699,18.9333876 26.0223207,19.5228413 C25.049688,19.9158105 24.5368514,19.2448852 24.4838109,17.5100655"
                      id="路径-20备份-10" fill="#7DCEF4"
                      transform="translate(25.569324, 18.299065) rotate(22.000000) translate(-25.569324, -18.299065) "></path>
                <path d="M10.3632363,16.8798797 C10.9248857,17.3070651 12.3704958,18.8468409 10.9115467,19.4362946 C9.93891396,19.8292638 9.42607734,19.1583385 9.37303686,17.4235188"
                      id="路径-20备份-8" fill="#7DCEF4"
                      transform="translate(10.458550, 18.212519) scale(-1, 1) rotate(22.000000) translate(-10.458550, -18.212519) "></path>
                <path d="M28,16.3491679 C29.1045695,16.3491679 30,15.4537374 30,14.3491679 C30,13.2445984 29.1045695,12.3491679 28,12.3491679 C26.8954305,12.3491679 26,13.2445984 26,14.3491679 C26,15.4537374 26.8954305,16.3491679 28,16.3491679 Z"
                      id="椭圆形备份-7" fill="#F6B2B1"></path>
                <g id="编组-27" transform="translate(14.440270, 11.349168)" fill="#333333">
                    <path d="M3.55973011,1 C4.11201486,1 4.4209444,0.776142375 4.4209444,0.5 C4.4209444,0.223857625 4.11201486,0 3.55973011,0 C3.00744536,0 2.73769821,0.223857625 2.73769821,0.5 C2.73769821,0.776142375 3.00744536,1 3.55973011,1 Z"
                          id="椭圆形备份-8"></path>
                    <path d="M1.62321956,-0.283998418 C2.72778906,-0.283998418 3.62321956,0.611432083 3.62321956,1.71600158 C3.62321956,2.77036338 2.80734177,3.6341667 1.77248191,3.71051585 L1.62321956,3.71600158 L1,3.71600158 C0.723857625,3.71600158 0.5,3.49214396 0.5,3.21600158 C0.5,2.97054169 0.676875161,2.76639321 0.910124368,2.72405725 L1,2.71600158 L1.62321956,2.71600158 C2.17550431,2.71600158 2.62321956,2.26828633 2.62321956,1.71600158 C2.62321956,1.20316574 2.23717937,0.780494422 1.73984069,0.722729314 L1.62321956,0.716001582 L1,0.716001582 C0.723857625,0.716001582 0.5,0.492143957 0.5,0.216001582 C0.5,-0.0294583065 0.676875161,-0.233606788 0.910124368,-0.275942748 L1,-0.283998418 L1.62321956,-0.283998418 Z"
                          id="矩形" fill-rule="nonzero"
                          transform="translate(2.061610, 1.716002) rotate(-270.000000) translate(-2.061610, -1.716002) "></path>
                    <path d="M4.62321956,-0.283998418 C5.72778906,-0.283998418 6.62321956,0.611432083 6.62321956,1.71600158 C6.62321956,2.77036338 5.80734177,3.6341667 4.77248191,3.71051585 L4.62321956,3.71600158 L4,3.71600158 C3.72385763,3.71600158 3.5,3.49214396 3.5,3.21600158 C3.5,2.97054169 3.67687516,2.76639321 3.91012437,2.72405725 L4,2.71600158 L4.62321956,2.71600158 C5.17550431,2.71600158 5.62321956,2.26828633 5.62321956,1.71600158 C5.62321956,1.20316574 5.23717937,0.780494422 4.73984069,0.722729314 L4.62321956,0.716001582 L4,0.716001582 C3.72385763,0.716001582 3.5,0.492143957 3.5,0.216001582 C3.5,-0.0294583065 3.67687516,-0.233606788 3.91012437,-0.275942748 L4,-0.283998418 L4.62321956,-0.283998418 Z"
                          id="矩形备份-11" fill-rule="nonzero"
                          transform="translate(5.061610, 1.716002) rotate(-270.000000) translate(-5.061610, -1.716002) "></path>
                    <path d="M3.5,2 L5.55973011,3 L6.94668948,11.8325968 C7.03235034,12.3781912 6.65951191,12.8899329 6.11391945,12.9756058 C5.99113556,12.9948863 5.86583335,12.9911082 5.74443411,12.9644653 C4.89067562,12.7770952 4.14253092,12.6834101 3.5,12.6834101 C2.8855246,12.6834101 2.19840422,12.7690924 1.43863886,12.9404571 C0.899885414,13.0619809 0.364629883,12.7237416 0.243113913,12.1849864 C0.215784067,12.0638164 0.211268078,11.9386151 0.229797093,11.815791 L1.55973011,3 L3.5,2 Z M3.513,3.117 L2.472,3.654 L1.21860863,11.9649611 L1.56939365,11.8905451 C2.26258654,11.7530157 2.90568378,11.6834101 3.5,11.6834101 C4.11791475,11.6834101 4.80729704,11.7586829 5.57083589,11.9072998 L5.95879749,11.9877114 L4.652,3.671 L3.513,3.117 Z"
                          id="矩形备份-12" fill-rule="nonzero"></path>
                </g>
                <path d="M10.3518734,4.12398547 C10.0111864,4.23881047 9.8014764,4.86621545 9.59417046,5.72736861 C9.38686453,6.58852177 9.21853883,7.4548101 9.51750998,7.58994847 C9.81648113,7.72508684 11.9759961,6.70416239 12.0664829,6.20182077 C12.1569697,5.69947916 10.6925604,4.00916047 10.3518734,4.12398547 Z"
                      id="路径-19" fill="#F6B2B1"></path>
                <path d="M24.9963398,4.12398547 C24.6556528,4.23881047 24.4459428,4.86621545 24.2386368,5.72736861 C24.0313309,6.58852177 23.8630052,7.4548101 24.1619764,7.58994847 C24.4609475,7.72508684 26.6204624,6.70416239 26.7109493,6.20182077 C26.8014361,5.69947916 25.3370267,4.00916047 24.9963398,4.12398547 Z"
                      id="路径-19备份" fill="#F6B2B1"
                      transform="translate(25.357484, 5.860280) scale(-1, 1) translate(-25.357484, -5.860280) "></path>
                <path d="M10.6417042,10.3491679 C11.193989,10.3491679 11.8668457,10.7968832 11.8668457,11.3491679 C11.8668457,11.9014527 11.193989,12.1984933 10.6417042,12.1984933 C10.0894195,12.1984933 9.35553362,11.9014527 9.35553362,11.3491679 C9.35553362,10.7968832 10.0894195,10.3491679 10.6417042,10.3491679 Z M10.6417042,10.8491679 C10.2820027,10.8491679 9.85553362,11.1548058 9.85553362,11.3491679 C9.85553362,11.4895707 10.2236843,11.6984933 10.6417042,11.6984933 C11.044172,11.6984933 11.3668457,11.5036026 11.3668457,11.3491679 C11.3668457,11.1398278 10.9857819,10.8491679 10.6417042,10.8491679 Z"
                      id="椭圆形" fill="#333333" fill-rule="nonzero"></path>
                <path d="M10.3222511,12.6886618 C10.4058368,12.578766 10.5626846,12.5574375 10.6725803,12.6410232 C11.0200392,12.9052972 11.438707,13.4916541 11.6410934,14.0280712 C11.9158852,14.756396 11.8002915,15.3708151 11.1631971,15.6282179 C10.2397303,16.0013227 9.62381828,15.1955478 9.28550616,13.4307132 C9.25951174,13.2951111 9.34836636,13.1641112 9.48396851,13.1381167 C9.61957066,13.1121223 9.75057056,13.2009769 9.77656498,13.3365791 C10.0631845,14.8317546 10.4729458,15.3678302 10.9758938,15.164626 C11.3038355,15.0321289 11.3642852,14.7108185 11.1732824,14.204573 C11.0028837,13.7529381 10.6395718,13.2441087 10.3698897,13.038991 C10.2599939,12.9554053 10.2386654,12.7985575 10.3222511,12.6886618 Z"
                      id="路径-20备份-7" fill="#333333" fill-rule="nonzero"
                      transform="translate(10.530945, 14.153833) scale(-1, 1) rotate(22.000000) translate(-10.530945, -14.153833) "></path>
                <g id="编组-33"
                   transform="translate(25.420172, 16.340007) scale(-1, 1) translate(-25.420172, -16.340007) translate(23.420172, 11.840007)"
                   fill="#333333" fill-rule="nonzero">
                    <path d="M1.94921426,0.848654673 C2.03279998,0.7387589 2.18964772,0.717430385 2.29954349,0.801016101 C2.64700233,1.06529011 3.06567015,1.65164703 3.26805654,2.18806414 C3.54284833,2.91638891 3.4272546,3.53080801 2.79016021,3.78821085 C1.86669339,4.16131566 1.25078143,3.3555407 0.912469301,1.59070613 C0.886474881,1.45510398 0.975329502,1.32410408 1.11093165,1.29810966 C1.2465338,1.27211524 1.3775337,1.36096986 1.40352812,1.49657201 C1.69014763,2.99174753 2.09990889,3.52782311 2.60285692,3.32461892 C2.93079865,3.19212186 2.99124839,2.87081139 2.80024555,2.36456593 C2.62984688,1.912931 2.26653491,1.40410161 1.99685283,1.1989839 C1.88695706,1.11539818 1.86562855,0.958550446 1.94921426,0.848654673 Z"
                          id="路径-20备份-9"
                          transform="translate(2.157908, 2.313826) scale(-1, 1) rotate(22.000000) translate(-2.157908, -2.313826) "></path>
                    <path d="M1.79121555,4.88852733 C1.87480127,4.77863156 2.031649,4.75730304 2.14154478,4.84088876 C2.54653307,5.14891914 3.01444279,5.67034185 3.24686239,6.14781071 C3.59862389,6.8704484 3.43372196,7.50423206 2.6321615,7.82808351 C1.44598611,8.30732948 0.807627701,7.47218867 0.750116765,5.59115167 C0.74589734,5.45314497 0.854353355,5.33784792 0.992360055,5.33362849 C1.13036676,5.32940907 1.24566381,5.43786508 1.24988324,5.57587178 C1.29845326,7.16447416 1.68576809,7.6711839 2.44485821,7.36449158 C2.95120455,7.15991438 3.03209747,6.84901072 2.79729577,6.36664821 C2.60300867,5.96751647 2.18621585,5.5030567 1.83885412,5.23885656 C1.72895835,5.15527084 1.70762983,4.99842311 1.79121555,4.88852733 Z"
                          id="路径-20备份-10"
                          transform="translate(2.086002, 6.375336) scale(-1, 1) rotate(22.000000) translate(-2.086002, -6.375336) "></path>
                </g>
                <path d="M10.1642524,16.7285344 C10.2478381,16.6186386 10.4046859,16.5973101 10.5145816,16.6808958 C10.9195699,16.9889262 11.3874797,17.5103489 11.6198992,17.9878178 C11.9716607,18.7104555 11.8067588,19.3442391 11.0051984,19.6680906 C9.81902296,20.1473366 9.18066456,19.3121958 9.12315362,17.4311588 C9.1189342,17.2931521 9.22739021,17.177855 9.36539691,17.1736356 C9.50340361,17.1694162 9.61870067,17.2778722 9.62292009,17.4158789 C9.67149012,19.0044812 10.0588049,19.511191 10.8178951,19.2044987 C11.3242414,18.9999215 11.4051343,18.6890178 11.1703326,18.2066553 C10.9760455,17.8075236 10.5592527,17.3430638 10.211891,17.0788636 C10.1019952,16.9952779 10.0806667,16.8384302 10.1642524,16.7285344 Z"
                      id="路径-20备份-8" fill="#333333" fill-rule="nonzero"
                      transform="translate(10.459039, 18.215343) scale(-1, 1) rotate(22.000000) translate(-10.459039, -18.215343) "></path>
                <path d="M25.2861706,10.3491679 C25.8384554,10.3491679 26.5113121,10.7968832 26.5113121,11.3491679 C26.5113121,11.9014527 25.8384554,12.1984933 25.2861706,12.1984933 C24.7338859,12.1984933 24,11.9014527 24,11.3491679 C24,10.7968832 24.7338859,10.3491679 25.2861706,10.3491679 Z M25.2861706,10.8491679 C24.9264691,10.8491679 24.5,11.1548058 24.5,11.3491679 C24.5,11.4895707 24.8681507,11.6984933 25.2861706,11.6984933 C25.6886384,11.6984933 26.0113121,11.5036026 26.0113121,11.3491679 C26.0113121,11.1398278 25.6302483,10.8491679 25.2861706,10.8491679 Z"
                      id="椭圆形备份-11" fill="#333333" fill-rule="nonzero"></path>
            </g>
        </g>
    </g>
</svg>
